<?xml version="1.0" encoding="UTF-8"?>
<svg version="1.1" xmlns="http://www.w3.org/2000/svg" width="1390" height="481">
<path d="M0 0 C1.35544922 -0.07734375 1.35544922 -0.07734375 2.73828125 -0.15625 C7.25422109 0.84862138 9.85367386 2.984371 12.6875 6.5 C15.53817657 11.44925649 17.85641414 16.603372 20.1875 21.8125 C20.88509926 23.33647975 21.58426518 24.85974323 22.28491211 26.38232422 C24.08880396 30.31348994 25.87192965 34.253683 27.64862061 38.19720459 C29.26851646 41.78788966 30.90212606 45.37230561 32.53515625 48.95703125 C34.38812786 53.02719026 36.23893987 57.09827717 38.08056641 61.17358398 C43.28471794 72.68127402 48.63245584 84.11925494 54.02954102 95.53759766 C54.48800667 96.5096817 54.48800667 96.5096817 54.95573425 97.50140381 C55.7807264 99.25015548 56.60781748 100.99791653 57.43505859 102.74560547 C59.30951962 106.86795816 59.89796055 110.0566526 60 114.5625 C60.05607422 116.15771484 60.05607422 116.15771484 60.11328125 117.78515625 C59.00597261 127.44617019 53.42945072 136.4757905 49.29193115 145.18225098 C47.49449589 148.96496196 45.70703728 152.75238924 43.91796875 156.5390625 C43.55737366 157.30158325 43.19677856 158.064104 42.82525635 158.84973145 C39.53935421 165.80191653 36.29472456 172.77268311 33.0625 179.75 C32.54768066 180.85851318 32.03286133 181.96702637 31.50244141 183.10913086 C28.94836146 188.61037899 26.40307311 194.11545313 23.875 199.62869263 C22.60458719 202.39610788 21.32863375 205.16094868 20.05181885 207.92541504 C19.44115238 209.2511464 18.83297543 210.57802776 18.22747803 211.90612793 C17.38589803 213.75154007 16.5349209 215.59265786 15.68359375 217.43359375 C15.20075928 218.48603271 14.7179248 219.53847168 14.22045898 220.62280273 C12.25141451 224.31848503 10.42221503 227.51583376 6.70559692 229.62440491 C2.23237952 230.92215223 -2.09243888 230.77476558 -6.72729492 230.75537109 C-7.77510132 230.75899155 -8.82290771 230.762612 -9.90246582 230.76634216 C-12.17558612 230.77322975 -14.44872293 230.7757428 -16.72185326 230.77439499 C-20.32504296 230.7734289 -23.92793504 230.78638328 -27.53108215 230.80337524 C-37.77501098 230.84961489 -48.01890986 230.87424199 -58.26293945 230.88085938 C-64.53229172 230.88588553 -70.80133423 230.91019428 -77.07058144 230.94618607 C-79.45425872 230.95596056 -81.83797875 230.95832891 -84.22167015 230.95301437 C-87.56502531 230.94591159 -90.90746376 230.96329412 -94.25073242 230.98583984 C-95.22615494 230.97766739 -96.20157745 230.96949493 -97.20655823 230.96107483 C-104.72725667 231.05082269 -112.07040177 232.42853852 -117.6875 237.75 C-119.01592921 239.99811097 -120.13607309 242.20796429 -121.25 244.5625 C-123.31902086 248.89681248 -126.00131682 251.34440841 -130.3125 253.5 C-132.265625 253.73828125 -132.265625 253.73828125 -134.5625 253.8125 C-135.68398437 253.86857422 -135.68398437 253.86857422 -136.828125 253.92578125 C-140.43115189 253.30828136 -142.47928491 251.78094619 -145.3125 249.5 C-147.19140625 246.8125 -147.19140625 246.8125 -148.875 243.5 C-149.19960205 242.86537842 -149.5242041 242.23075684 -149.85864258 241.5769043 C-154.74529101 231.86932713 -159.21783179 221.9503681 -163.75131226 212.07421875 C-166.73141417 205.58209935 -169.73991895 199.10326786 -172.75 192.625 C-173.27456787 191.49360596 -173.79913574 190.36221191 -174.33959961 189.1965332 C-177.27888601 182.86010403 -180.23443315 176.53178743 -183.20703125 170.2109375 C-184.17688347 168.14525429 -185.146477 166.07944985 -186.11599731 164.01361084 C-186.74201309 162.68181097 -187.36933215 161.35062286 -187.99801636 160.02008057 C-188.8716383 158.17110897 -189.74091188 156.32014901 -190.609375 154.46875 C-191.10791992 153.41107422 -191.60646484 152.35339844 -192.12011719 151.26367188 C-195.43090395 143.59002196 -195.93079211 135.25533709 -192.8671875 127.39453125 C-191.01537454 123.11418041 -188.96283044 118.93180509 -186.90087891 114.74951172 C-185.08722133 111.03912402 -183.32626299 107.30617483 -181.57421875 103.56640625 C-181.08094086 102.51390434 -181.08094086 102.51390434 -180.57769775 101.44013977 C-179.89768852 99.98909072 -179.21775798 98.53800479 -178.53790283 97.08688354 C-177.14897378 94.12692505 -175.75325986 91.17018919 -174.35748291 88.2134552 C-170.51600934 80.07484402 -166.70874405 71.92144229 -162.9375 63.75 C-162.21626953 62.19466553 -162.21626953 62.19466553 -161.48046875 60.60791016 C-159.12175473 55.50411309 -156.81784241 50.3844421 -154.59765625 45.21875 C-154.15921387 44.21295898 -153.72077148 43.20716797 -153.26904297 42.17089844 C-152.45422359 40.29546577 -151.65376104 38.41369284 -150.87158203 36.52441406 C-150.50532715 35.68620117 -150.13907227 34.84798828 -149.76171875 33.984375 C-149.45580811 33.25959961 -149.14989746 32.53482422 -148.8347168 31.78808594 C-146.11244791 27.69616869 -142.89650072 24.11202135 -137.97019672 22.94522476 C-135.20783001 22.7376927 -132.50060935 22.7150158 -129.73071289 22.75878906 C-128.16837669 22.74766335 -128.16837669 22.74766335 -126.57447815 22.73631287 C-123.14415791 22.71846108 -119.71542152 22.74223829 -116.28515625 22.765625 C-113.89293009 22.7594489 -111.50070985 22.75035174 -109.10850525 22.73846436 C-102.81664814 22.71373957 -96.52532229 22.72296354 -90.23345947 22.74102783 C-80.16715006 22.76443526 -70.10087557 22.73719859 -60.03460503 22.70830536 C-56.52484401 22.7032009 -53.01536925 22.71302303 -49.50563049 22.72515869 C-47.34498082 22.72497004 -45.18433115 22.72447749 -43.02368164 22.72363281 C-42.0535614 22.7308989 -41.08344116 22.73816498 -40.08392334 22.74565125 C-31.96346933 22.72339948 -24.75094777 21.93691145 -18.3125 16.5 C-16.43974759 13.94475764 -14.87438839 11.2531592 -13.3125 8.5 C-9.60705697 2.43654777 -7.19208359 0.24414428 0 0 Z M-32.5 53.75 C-33.51893102 55.2959643 -34.51926 56.85596824 -35.44921875 58.45703125 C-38.4261276 63.51871538 -41.25566273 67.17219831 -47.11143494 69.08879089 C-49.92602498 69.61462045 -52.60289934 69.63274374 -55.46704102 69.6418457 C-57.3353231 69.65239738 -57.3353231 69.65239738 -59.24134827 69.66316223 C-59.904778 69.66497812 -60.56820774 69.66679401 -61.25174141 69.66866493 C-63.34288976 69.67587253 -65.43380911 69.6915738 -67.52488708 69.71000671 C-73.46943884 69.76225174 -79.41386654 69.81035148 -85.35864258 69.82592773 C-89.00101561 69.8360942 -92.64281225 69.86563794 -96.28495598 69.90724754 C-97.66298978 69.91944462 -99.04110542 69.92469976 -100.41919136 69.92244911 C-114.09941002 69.90561567 -124.45504514 72.69433562 -134.3125 82.5 C-138.56429785 87.78173646 -142.92458975 93.8104641 -142.3125 100.875 C-141.69130166 105.15912645 -140.14812975 107.7352671 -137.37109375 110.9921875 C-130.69413339 115.88271255 -123.63927534 115.93325748 -115.69140625 115.86328125 C-114.04240578 115.86402901 -114.04240578 115.86402901 -112.36009216 115.86479187 C-110.0446491 115.86246056 -107.72920305 115.85278805 -105.41381836 115.83618164 C-101.88957801 115.81259756 -98.36609613 115.8156276 -94.84179688 115.82226562 C-92.58332887 115.81668758 -90.32486402 115.80957691 -88.06640625 115.80078125 C-86.50038414 115.80214836 -86.50038414 115.80214836 -84.90272522 115.80354309 C-76.14737059 115.7196302 -68.32280723 115.20606403 -61.3125 109.5 C-59.02061108 106.93847709 -57.21310071 104.34288499 -55.375 101.4375 C-52.88110863 97.88559411 -50.19903584 95.44326792 -46.3125 93.5 C-44.31152482 93.37972528 -42.3066379 93.32262742 -40.30224609 93.29467773 C-39.04108978 93.27473251 -37.77993347 93.25478729 -36.4805603 93.23423767 C-35.09902063 93.21725335 -33.71747966 93.20037454 -32.3359375 93.18359375 C-30.92631418 93.1630244 -29.51669703 93.14202793 -28.10708618 93.12062073 C-24.39502965 93.06539805 -20.68291743 93.01598969 -16.97076416 92.96777344 C-13.18358397 92.91755982 -9.39648474 92.86187303 -5.609375 92.80664062 C1.82284812 92.69905667 9.25513852 92.59761227 16.6875 92.5 C14.06095382 86.65387921 11.43160243 80.80902915 8.79858398 74.96582031 C7.89443439 72.95924793 6.99104904 70.9523312 6.08789062 68.9453125 C4.8856578 66.28985118 3.66537111 63.64368168 2.4375 61 C2.04304687 60.12214844 1.64859375 59.24429688 1.2421875 58.33984375 C-0.92242698 53.70643694 -2.64666221 50.02133379 -7.3125 47.5 C-16.70426018 46.06967594 -25.65643647 46.71090608 -32.5 53.75 Z M-74.18623352 144.4443512 C-76.4828561 147.3978386 -78.31884508 150.51099814 -80.1875 153.75 C-83.00367467 157.39446134 -86.00448464 159.09959775 -90.3125 160.5 C-94.94859429 161.08887905 -99.54967398 161.10486203 -104.21875 161.109375 C-105.55255111 161.12437992 -106.8863338 161.14111187 -108.22009277 161.15948486 C-111.70525025 161.20291259 -115.19015722 161.22310208 -118.67553711 161.23822021 C-122.24217391 161.25788093 -125.80854363 161.29984031 -129.375 161.33984375 C-136.35406537 161.4148785 -143.33312041 161.46533104 -150.3125 161.5 C-148.49229542 167.27593705 -146.42252696 172.79546361 -143.84375 178.2734375 C-143.36137878 179.30907333 -143.36137878 179.30907333 -142.8692627 180.3656311 C-142.19610032 181.80693456 -141.52042059 183.24706484 -140.84228516 184.68603516 C-139.80683432 186.88704327 -138.78391821 189.09359304 -137.76171875 191.30078125 C-137.10230711 192.70868232 -136.44217649 194.11624693 -135.78125 195.5234375 C-135.3264325 196.50780289 -135.3264325 196.50780289 -134.86242676 197.51205444 C-132.73566507 202.00278003 -132.73566507 202.00278003 -129.3125 205.5 C-121.81889567 207.99786811 -113.33470735 207.00398176 -106.3125 203.5 C-101.88379134 200.10122359 -99.6879074 195.8096597 -97.23046875 190.90234375 C-93.76843152 186.56598347 -89.60773304 184.76536263 -84.20292664 184.14048767 C-81.12592684 184.03191147 -78.05967332 183.98734041 -74.98090363 184.0141449 C-72.90981067 184.03161537 -70.84008852 184.02378789 -68.76898193 184.0098877 C-63.62528881 183.98044205 -58.48186852 183.99335124 -53.33813477 184.00506592 C-48.98491559 184.01333881 -44.63230153 184.00504835 -40.27916718 183.97593689 C-38.26099344 183.96895033 -36.24278123 183.98565185 -34.22467041 184.00305176 C-20.86165957 183.93053979 -10.7369389 180.73647842 -1.15234375 171.39453125 C3.6382611 166.34309491 7.38330929 161.60255381 7.80859375 154.46875 C7.53902755 149.94699446 5.97151296 146.73299813 3.4296875 143.04296875 C-2.80378614 137.52229143 -10.2491322 138.04683008 -18.11328125 138.06640625 C-19.96061104 138.05854347 -19.96061104 138.05854347 -21.84526062 138.05052185 C-24.44492847 138.04411272 -27.04462536 138.04542421 -29.64428711 138.05395508 C-33.60128034 138.06244908 -37.55682163 138.03371034 -41.51367188 138.00195312 C-44.04687457 138.00034044 -46.5800798 138.00091992 -49.11328125 138.00390625 C-50.28651443 137.99267227 -51.45974762 137.98143829 -52.66853333 137.96986389 C-60.36703748 138.03447036 -68.54841199 138.59405023 -74.18623352 144.4443512 Z " fill="#E60151" transform="translate(308.3125,113.5)"/>
<path d="M0 0 C0.8539032 -0.0065712 1.7078064 -0.0131424 2.58758545 -0.01991272 C5.42289311 -0.03967417 8.25814761 -0.05131761 11.09350586 -0.0612793 C12.54675168 -0.06739259 12.54675168 -0.06739259 14.029356 -0.07362938 C19.16198388 -0.09450705 24.29458492 -0.10879869 29.42724609 -0.11816406 C34.71762647 -0.12920299 40.00758327 -0.16356895 45.29781437 -0.20333576 C49.37376154 -0.22954991 53.44960881 -0.2378604 57.52563286 -0.24144554 C59.47477501 -0.24630288 61.42391295 -0.25789244 63.37297249 -0.27648354 C66.11096236 -0.30096621 68.84787051 -0.29989287 71.5859375 -0.29296875 C72.38265366 -0.30577881 73.17936981 -0.31858887 74.00022888 -0.33178711 C80.56863943 -0.2716429 86.71934125 1.37738519 91.63780308 5.92711926 C96.22364259 10.9338053 98.03760946 15.5304855 98.12084961 22.36450195 C98.14920898 23.40993164 98.17756836 24.45536133 98.20678711 25.5324707 C96.98827132 35.1670066 91.48431492 44.16012669 87.35028076 52.85925293 C85.5528455 56.64196392 83.76538689 60.42939119 81.97631836 64.21606445 C81.61572327 64.97858521 81.25512817 65.74110596 80.88360596 66.5267334 C77.59770382 73.47891848 74.35307417 80.44968506 71.12084961 87.42700195 C70.60603027 88.53551514 70.09121094 89.64402832 69.56079102 90.78613281 C67.00671107 96.28738094 64.46142272 101.79245508 61.93334961 107.30569458 C60.6629368 110.07310984 59.38698336 112.83795064 58.11016846 115.60241699 C57.49950199 116.92814835 56.89132503 118.25502971 56.28582764 119.58312988 C55.44424764 121.42854202 54.59327051 123.26965982 53.74194336 125.1105957 C53.25910889 126.16303467 52.77627441 127.21547363 52.27880859 128.29980469 C50.30976412 131.99548698 48.48056464 135.19283572 44.76394653 137.30140686 C40.29072913 138.59915419 35.96591073 138.45176753 31.33105469 138.43237305 C30.28324829 138.4359935 29.23544189 138.43961395 28.15588379 138.44334412 C25.88276349 138.4502317 23.60962668 138.45274475 21.33649635 138.45139694 C17.73330665 138.45043085 14.13041457 138.46338523 10.52726746 138.4803772 C0.28333863 138.52661684 -9.96056026 138.55124395 -20.20458984 138.55786133 C-26.47394211 138.56288748 -32.74298462 138.58719624 -39.01223183 138.62318802 C-41.39590911 138.63296252 -43.77962914 138.63533087 -46.16332054 138.63001633 C-49.5066757 138.62291355 -52.84911415 138.64029607 -56.19238281 138.6628418 C-57.16780533 138.65466934 -58.14322784 138.64649689 -59.14820862 138.63807678 C-66.66890706 138.72782464 -74.01205217 140.10554048 -79.62915039 145.42700195 C-80.9575796 147.67511292 -82.07772348 149.88496625 -83.19165039 152.23950195 C-85.26067125 156.57381443 -87.94296721 159.02141036 -92.25415039 161.17700195 C-94.20727539 161.4152832 -94.20727539 161.4152832 -96.50415039 161.48950195 C-97.62563477 161.54557617 -97.62563477 161.54557617 -98.76977539 161.6027832 C-102.37280228 160.98528331 -104.4209353 159.45794814 -107.25415039 157.17700195 C-109.13305664 154.48950195 -109.13305664 154.48950195 -110.81665039 151.17700195 C-111.14125244 150.54238037 -111.46585449 149.90775879 -111.80029297 149.25390625 C-116.68240305 139.55534474 -121.15077052 129.64568811 -125.67936707 119.77841187 C-128.18341365 114.32358779 -130.71191428 108.88031316 -133.24511719 103.43896484 C-134.86129852 99.96537027 -136.4723366 96.48943107 -138.08227539 93.01293945 C-140.22516761 88.38678214 -142.38351045 83.76823212 -144.55102539 79.15356445 C-145.57727376 76.95314001 -146.60332433 74.7526233 -147.62915039 72.55200195 C-148.11206543 71.53203125 -148.59498047 70.51206055 -149.0925293 69.46118164 C-149.52484863 68.52951172 -149.95716797 67.5978418 -150.40258789 66.63793945 C-150.78592285 65.82115723 -151.16925781 65.004375 -151.56420898 64.1628418 C-151.79188965 63.50751465 -152.01957031 62.8521875 -152.25415039 62.17700195 C-151.92415039 61.51700195 -151.59415039 60.85700195 -151.25415039 60.17700195 C-150.8068457 60.58692383 -150.35954102 60.9968457 -149.89868164 61.41918945 C-149.29411133 61.95801758 -148.68954102 62.4968457 -148.06665039 63.05200195 C-147.4749707 63.58567383 -146.88329102 64.1193457 -146.27368164 64.66918945 C-142.03379647 67.83475169 -138.07021162 68.44289595 -132.85961914 68.59106445 C-131.65756836 68.62973633 -130.45551758 68.6684082 -129.21704102 68.70825195 C-127.97116211 68.73918945 -126.7252832 68.77012695 -125.44165039 68.80200195 C-124.17643555 68.84067383 -122.9112207 68.8793457 -121.60766602 68.91918945 C-118.48997188 69.01330852 -115.37228125 69.09894556 -112.25415039 69.17700195 C-111.86146973 70.02294922 -111.46878906 70.86889648 -111.06420898 71.74047852 C-109.5782923 74.93936939 -108.09079639 78.1375166 -106.60229492 81.33520508 C-105.96365974 82.70796631 -105.32561897 84.08100427 -104.68823242 85.4543457 C-102.85208319 89.41001838 -101.00344425 93.35940881 -99.13781738 97.30126953 C-98.28120732 99.11956906 -97.4378643 100.94410039 -96.5949707 102.76879883 C-96.08289063 103.84709961 -95.57081055 104.92540039 -95.04321289 106.03637695 C-94.59929199 106.98480469 -94.15537109 107.93323242 -93.69799805 108.91040039 C-92.08865613 111.43680052 -91.04686064 112.19354661 -88.25415039 113.17700195 C-81.04216073 114.05152668 -74.92051359 112.85743549 -68.25415039 110.17700195 C-67.26415039 109.84700195 -66.27415039 109.51700195 -65.25415039 109.17700195 C-64.105659 107.24902903 -63.29686168 105.27882082 -62.42993164 103.2121582 C-60.11442959 97.92107885 -57.34501866 94.92914188 -52.25415039 92.17700195 C-49.0104351 91.09576352 -46.64165801 91.04600922 -43.22900391 91.03515625 C-41.36545006 91.02460457 -41.36545006 91.02460457 -39.46424866 91.01383972 C-38.79994402 91.01202383 -38.13563938 91.01020794 -37.4512043 91.00833702 C-35.35986082 91.00114089 -33.26874785 90.98544636 -31.17747498 90.96699524 C-25.23114399 90.91470838 -19.28493426 90.86667899 -13.33837891 90.85107422 C-9.69715491 90.84089461 -6.0565054 90.81131399 -2.41551018 90.76975441 C-1.03830281 90.75757048 0.33898623 90.75229969 1.71624565 90.75455284 C15.65664289 90.7717293 26.57540395 88.11683019 36.68334961 78.29418945 C41.14505614 73.55362627 44.54593 68.78384518 44.83569336 62.10668945 C44.47155323 57.19546615 42.97560889 53.83172956 39.74584961 50.17700195 C33.35512269 46.49550066 27.18673005 46.72538158 19.94506836 46.7434082 C18.09773857 46.73554543 18.09773857 46.73554543 16.21308899 46.7275238 C13.61342114 46.72111468 11.01372425 46.72242616 8.4140625 46.73095703 C4.45706927 46.73945104 0.50152798 46.71071229 -3.45532227 46.67895508 C-5.98852496 46.6773424 -8.52173019 46.67792188 -11.05493164 46.6809082 C-12.22816483 46.66967422 -13.40139801 46.65844025 -14.61018372 46.64686584 C-21.19220134 46.70210267 -26.26333803 47.48917534 -32.23771667 50.31944275 C-34.25415039 51.17700195 -34.25415039 51.17700195 -37.25415039 51.17700195 C-36.82070312 50.26523193 -36.38725586 49.35346191 -35.94067383 48.4140625 C-34.3105035 44.98152519 -32.68693282 41.54589885 -31.06518555 38.109375 C-30.36674459 36.63165651 -29.66659362 35.15474485 -28.96459961 33.67871094 C-25.32786678 26.02912098 -21.76052292 18.51534655 -19.25952148 10.39941406 C-15.49459563 2.07689827 -8.28655768 0.02747829 0 0 Z " fill="#DC027A" transform="translate(270.254150390625,205.822998046875)"/>
<path d="M0 0 C6.27 0 12.54 0 19 0 C19.33 10.56 19.66 21.12 20 32 C23.3 30.02 26.6 28.04 30 26 C40.7172386 21.63324052 52.16325996 22.47773811 63 26 C75.79995972 31.70067362 82.78424504 41.34612492 88 54 C91.09276146 65.00447683 90.02073163 78.85486382 85 89 C78.56094995 100.29686503 69.72094013 107.94685377 57.08911133 111.54418945 C47.10542102 113.72247037 34.96892658 112.95110056 26 108 C23.76533701 106.45628956 21.95535923 104.90251168 20 103 C19.67 105.31 19.34 107.62 19 110 C12.73 110 6.46 110 0 110 C0 73.7 0 37.4 0 0 Z M24.5625 50.3125 C19.07877043 57.55164442 17.92577587 65.02845781 19 74 C21.36765864 82.06218121 25.70458419 87.76865883 33 92 C39.50442192 95.02531252 47.45384006 95.10953508 54.25 92.875 C61.32545816 89.77223761 65.69761885 84.85879162 69 78 C71.28282705 70.78133067 71.11410657 62.42605322 67.9375 55.5625 C64.52834417 49.64689439 59.63674481 44.90129132 53.13671875 42.4765625 C42.29306478 40.05805101 32.2578887 42.08899639 24.5625 50.3125 Z " fill="#FFFFFF" transform="translate(815,184)"/>
<path d="M0 0 C0.83265381 0.00523682 1.66530762 0.01047363 2.52319336 0.01586914 C3.42231445 0.0190918 4.32143555 0.02231445 5.24780273 0.02563477 C6.66609375 0.03820312 6.66609375 0.03820312 8.11303711 0.05102539 C9.06243164 0.05553711 10.01182617 0.06004883 10.98999023 0.06469727 C13.34356776 0.07652429 15.69702188 0.09300514 18.05053711 0.11352539 C18.9134774 2.12705275 19.77641517 4.14058119 20.63934326 6.15411377 C21.43182537 8.00321091 22.22434829 9.85229056 23.01690674 11.70135498 C25.2969552 17.0209625 27.57623512 22.34089741 29.85424805 27.66137695 C34.58104888 38.69894387 39.31439125 49.73353397 44.07067871 60.75842285 C46.00869762 65.25078892 47.94351912 69.74452992 49.87763214 74.2385788 C51.22057763 77.35834914 52.5653884 80.4772894 53.91430664 83.59448242 C55.42764301 87.09375077 56.93501883 90.59553126 58.44116211 94.09790039 C58.89436829 95.14161804 59.34757446 96.18533569 59.81451416 97.26068115 C60.22788025 98.22500061 60.64124634 99.18932007 61.06713867 100.18286133 C61.42793518 101.01879822 61.78873169 101.85473511 62.16046143 102.71600342 C63.05053711 105.11352539 63.05053711 105.11352539 64.05053711 110.11352539 C56.79053711 110.11352539 49.53053711 110.11352539 42.05053711 110.11352539 C37.10053711 98.23352539 37.10053711 98.23352539 32.05053711 86.11352539 C15.88053711 86.11352539 -0.28946289 86.11352539 -16.94946289 86.11352539 C-20.24946289 94.03352539 -23.54946289 101.95352539 -26.94946289 110.11352539 C-34.20946289 110.11352539 -41.46946289 110.11352539 -48.94946289 110.11352539 C-45.57442886 99.9884233 -45.57442886 99.9884233 -44.03027344 96.40307617 C-43.68028793 95.58553864 -43.33030243 94.7680011 -42.9697113 93.9256897 C-42.59564651 93.0621286 -42.22158173 92.1985675 -41.83618164 91.30883789 C-41.43355606 90.37123627 -41.03093048 89.43363464 -40.61610413 88.46762085 C-39.29329911 85.38970329 -37.96525345 82.31407916 -36.63696289 79.23852539 C-35.71057951 77.08695176 -34.78447746 74.93525698 -33.85864258 72.78344727 C-31.90774346 68.25097959 -29.9545186 63.71952335 -27.99975586 59.1887207 C-25.41394721 53.19379242 -22.83532336 47.1958037 -20.2591095 41.19674683 C-18.23133178 36.47540201 -16.20133778 31.75501237 -14.17080688 27.03485107 C-13.18982255 24.75376187 -12.20949625 22.47238955 -11.22982788 20.19073486 C-9.86266449 17.00773804 -8.49242634 13.82608305 -7.12133789 10.64477539 C-6.71190445 9.68985199 -6.30247101 8.73492859 -5.88063049 7.75106812 C-5.32060585 6.45418564 -5.32060585 6.45418564 -4.74926758 5.13110352 C-4.42400085 4.37510864 -4.09873413 3.61911377 -3.76361084 2.84020996 C-2.4928745 0.14517053 -2.4928745 0.14517053 0 0 Z M7.05053711 28.11352539 C4.76958393 33.36358501 2.49098453 38.61465722 0.21459961 43.86669922 C-0.56078861 45.65474315 -1.33682928 47.44250428 -2.11352539 49.22998047 C-3.22720601 51.79329256 -4.33856727 54.35759908 -5.44946289 56.92211914 C-5.79944336 57.72628769 -6.14942383 58.53045624 -6.51000977 59.35899353 C-8.19496358 62.62763824 -8.19496358 62.62763824 -8.94946289 66.11352539 C1.94053711 66.11352539 12.83053711 66.11352539 24.05053711 66.11352539 C20.73171124 57.48457814 17.39105344 48.90335311 13.86303711 40.36352539 C13.20658203 38.74704102 13.20658203 38.74704102 12.53686523 37.09790039 C11.90361328 35.56649414 11.90361328 35.56649414 11.25756836 34.00415039 C10.88092041 33.08666016 10.50427246 32.16916992 10.11621094 31.22387695 C9.23497577 28.95707059 9.23497577 28.95707059 7.05053711 28.11352539 Z " fill="#FFFFFF" transform="translate(1180.949462890625,183.886474609375)"/>
<path d="M0 0 C6.76204064 5.07696621 11.01767452 11.45440751 12.625 19.8125 C12.625 21.4625 12.625 23.1125 12.625 24.8125 C6.025 24.8125 -0.575 24.8125 -7.375 24.8125 C-8.365 22.8325 -9.355 20.8525 -10.375 18.8125 C-17.2272663 12.25815832 -22.6542151 11.34469858 -31.9140625 11.5 C-36.46255231 11.91069885 -39.86215245 12.84363672 -43.375 15.8125 C-46.73153945 20.42774174 -46.9871408 24.30323276 -46.375 29.8125 C-44.06312218 34.14727091 -41.36062074 35.45052203 -36.83203125 37.07836914 C-32.02133769 38.51574549 -27.06281383 39.2529261 -22.125 40.125 C-9.95581994 42.4326136 1.96551308 45.16602654 9.625 55.8125 C14.95202346 64.38344222 15.03334136 75.12287852 13 84.78125 C10.13233701 93.07698936 4.28056569 98.64771688 -3.375 102.6875 C-11.038783 106.38993571 -18.37389567 107.1553482 -26.75 107.125 C-27.63171875 107.14111328 -28.5134375 107.15722656 -29.421875 107.17382812 C-40.92854443 107.1822641 -51.70859708 103.41965613 -60.1875 95.5 C-66.91426316 88.36744603 -68.375 81.5401436 -68.375 71.8125 C-62.105 71.8125 -55.835 71.8125 -49.375 71.8125 C-48.653125 73.38 -47.93125 74.9475 -47.1875 76.5625 C-44.55324788 81.8014059 -42.20584333 84.70284181 -36.64453125 86.8828125 C-29.73674263 88.84703435 -21.37710197 89.20186877 -14.75 86.125 C-11.50976539 84.12245157 -9.19682788 82.22842728 -7.375 78.8125 C-6.59553315 74.35492396 -6.77080609 70.97053833 -8.875 66.9375 C-15.16233892 61.59326192 -23.76181946 60.88979879 -31.625 59.5 C-44.11918825 57.11602025 -54.48895091 54.57961509 -62.81640625 44.2265625 C-67.88904706 36.36969027 -68.51580663 27.22953727 -66.90625 18.17578125 C-64.4503083 8.62976978 -58.78514018 1.82595217 -50.375 -3.1875 C-35.55920901 -11.72181968 -13.8776558 -8.80146312 0 0 Z " fill="#FFFFFF" transform="translate(481.375,189.1875)"/>
<path d="M0 0 C0.60585938 0.50144531 1.21171875 1.00289062 1.8359375 1.51953125 C10.47074909 9.26823772 14.44253515 20.3251658 15.17384338 31.70521545 C15.22915528 34.55825899 15.22547721 37.40440767 15.1953125 40.2578125 C15.1924826 41.28687714 15.18965271 42.31594177 15.18673706 43.37619019 C15.17564479 46.62591756 15.15056115 49.87535754 15.125 53.125 C15.11495603 55.34374599 15.10583267 57.56249634 15.09765625 59.78125 C15.07574144 65.18760879 15.04128843 70.59375587 15 76 C8.73 76 2.46 76 -4 76 C-4.495 72.535 -4.495 72.535 -5 69 C-5.47308594 69.39832031 -5.94617188 69.79664063 -6.43359375 70.20703125 C-16.68285318 78.41842623 -27.20609218 79.28622291 -40 78 C-51.66744417 75.55025194 -60.99700203 68.46475054 -68 59 C-75.11055044 47.68447937 -76.41992442 35.52627195 -73.9375 22.5625 C-71.07061603 11.13534275 -63.85780575 1.76423434 -54.125 -4.75 C-37.15602796 -14.70862452 -14.78010723 -12.98762614 0 0 Z M-51 18 C-55.67259671 24.35097196 -56.65580426 31.90607857 -55.6640625 39.609375 C-53.83144499 47.27304821 -49.35552796 52.99646678 -42.8984375 57.44921875 C-36.88640995 60.56454212 -30.63777461 60.98657928 -24 60 C-15.57608437 57.32235593 -10.91710079 52.42594603 -6.1875 45.25 C-3.53819085 37.99925918 -3.23412342 30.73736588 -5.796875 23.421875 C-8.93333616 17.10821941 -14.11639827 11.40686794 -20.6640625 8.5859375 C-32.77803439 5.54731579 -42.69279855 9.0246106 -51 18 Z " fill="#FFFFFF" transform="translate(782,218)"/>
<path d="M0 0 C9.9167991 9.6168959 13.96250233 20.7561675 14.22705078 34.47143555 C14.22674074 36.35989289 14.21584355 38.24837299 14.1953125 40.13671875 C14.1924826 41.14217239 14.18965271 42.14762604 14.18673706 43.18354797 C14.17566487 46.35166021 14.15058557 49.51947521 14.125 52.6875 C14.11495341 54.8535115 14.10583052 57.0195275 14.09765625 59.18554688 C14.07576819 64.45714338 14.04132997 69.72852154 14 75 C7.73 75 1.46 75 -5 75 C-5.495 71.535 -5.495 71.535 -6 68 C-6.66 68.5775 -7.32 69.155 -8 69.75 C-18.1335573 77.35016797 -28.67443581 78.01151209 -41 77 C-52.65826616 74.59410781 -62.0145244 67.44106856 -69 58 C-76.12734505 46.65775293 -77.6899002 33.9460033 -74.875 20.9375 C-71.54108848 8.9509251 -63.82002504 -0.72250991 -53.06640625 -6.97265625 C-35.54738893 -15.68248906 -14.38534691 -13.32279288 0 0 Z M-51.45703125 15.8828125 C-55.9904839 22.10339816 -57.85508939 29.42635112 -57 37 C-55.4606213 45.32460133 -50.8483311 51.64762236 -43.8984375 56.453125 C-37.11573167 59.95546765 -29.47938448 60.42382685 -22.22265625 58.1171875 C-15.07549769 54.87141023 -10.91186106 50.4940909 -7.1875 43.6875 C-4.52963134 35.43411837 -4.11232824 27.93943356 -8 20 C-12.01141595 14.13928449 -16.91813168 8.74163211 -24 7 C-35.44358675 5.72700147 -43.52289434 7.42215392 -51.45703125 15.8828125 Z " fill="#FFFFFF" transform="translate(582,219)"/>
<path d="M0 0 C7.37494283 6.82815684 13.61381329 16.11553839 14.12025452 26.45513916 C14.11803391 27.37003113 14.11581329 28.2849231 14.11352539 29.22753906 C14.11341209 30.78870453 14.11341209 30.78870453 14.11329651 32.38140869 C14.10813522 33.49820007 14.10297394 34.61499146 14.09765625 35.765625 C14.0962413 36.91415955 14.09482635 38.06269409 14.09336853 39.24603271 C14.08777143 42.91404831 14.07521944 46.58200285 14.0625 50.25 C14.05748463 52.73697829 14.05292178 55.22395753 14.04882812 57.7109375 C14.03780295 63.80731519 14.02054027 69.90364724 14 76 C8.06 76 2.12 76 -4 76 C-4.495 72.535 -4.495 72.535 -5 69 C-5.556875 69.39832031 -6.11375 69.79664063 -6.6875 70.20703125 C-7.450625 70.73683594 -8.21375 71.26664062 -9 71.8125 C-9.7425 72.33457031 -10.485 72.85664063 -11.25 73.39453125 C-17.6322482 77.12053127 -23.38359321 78.53875919 -30.75 78.4375 C-31.92743774 78.42505249 -31.92743774 78.42505249 -33.12866211 78.41235352 C-46.82317582 78.01811539 -55.8937702 72.44802024 -65.25 62.8125 C-74.14834059 52.45774439 -75.76455386 40.16731654 -75 27 C-73.44520238 16.85428673 -68.74295322 7.79869063 -61 1 C-60.48824219 0.50886719 -59.97648438 0.01773438 -59.44921875 -0.48828125 C-43.04392863 -15.68674543 -16.69590605 -13.72434112 0 0 Z M-45 12 C-45.886875 12.556875 -46.77375 13.11375 -47.6875 13.6875 C-53.15813237 19.15813237 -56.07462106 25.93775436 -56.3125 33.625 C-56.20294016 41.06411316 -53.86171337 47.36783472 -48.8125 52.875 C-42.5011415 58.54316273 -36.08924924 60.68185736 -27.63671875 60.31640625 C-20.42219296 59.45066315 -14.79818185 56.48530012 -10 51 C-4.59987219 43.5952793 -3.73576216 35.96272682 -5 27 C-7.60546767 18.46049362 -12.66351701 13.60188979 -20.125 9.125 C-28.42271292 5.99696827 -37.77201989 7.04909238 -45 12 Z " fill="#FFFFFF" transform="translate(989,218)"/>
<path d="M0 0 C6.27 0 12.54 0 19 0 C19.33 9.9 19.66 19.8 20 30 C23.96 28.02 27.92 26.04 32 24 C44.21568761 22.15612262 54.47323965 23.22910504 65 30 C74.31406862 37.32402244 78.31831106 46.51515005 80 58 C80.24834274 62.12091158 80.23454795 66.22441421 80.1953125 70.3515625 C80.1924826 71.49160736 80.18965271 72.63165222 80.18673706 73.8062439 C80.17562932 77.41260714 80.15054232 81.01871305 80.125 84.625 C80.11495804 87.08463181 80.10583433 89.54426754 80.09765625 92.00390625 C80.07572083 98.00270184 80.04125648 104.00130744 80 110 C73.73 110 67.46 110 61 110 C60.98541748 108.53248291 60.97083496 107.06496582 60.95581055 105.55297852 C60.89759263 100.07910481 60.82036112 94.60563238 60.73754883 89.13208008 C60.7044098 86.76853984 60.67634398 84.40492255 60.65356445 82.04125977 C60.61981577 78.63264306 60.56748871 75.22472537 60.51171875 71.81640625 C60.50532883 70.76916885 60.4989389 69.72193146 60.49235535 68.64295959 C60.32669863 60.27099512 59.26991673 52.09077626 53 46 C47.39035225 41.82872347 40.67686243 42.28170673 34 43 C28.32789197 44.52222707 25.09246448 47.47282525 21.91015625 52.31640625 C20.10168333 55.66169307 19.85665152 58.47853018 19.79467773 62.20581055 C19.77473251 63.26668381 19.75478729 64.32755707 19.73423767 65.420578 C19.70916893 67.13631767 19.70916893 67.13631767 19.68359375 68.88671875 C19.66281265 70.05886429 19.64203156 71.23100983 19.62062073 72.43867493 C19.55516182 76.18822286 19.49625704 79.93784163 19.4375 83.6875 C19.39431132 86.22722091 19.35069692 88.76693462 19.30664062 91.30664062 C19.1994841 97.53768755 19.09820612 103.76880584 19 110 C12.73 110 6.46 110 0 110 C0 73.7 0 37.4 0 0 Z " fill="#FFFFFF" transform="translate(614,184)"/>
<path d="M0 0 C0.92167969 -0.06058594 1.84335937 -0.12117188 2.79296875 -0.18359375 C7.37104154 0.7580797 9.95852655 2.88487569 12.8125 6.4375 C15.66245405 11.38721823 17.98132265 16.5408587 20.3125 21.75 C21.00789276 23.26885718 21.70486085 24.78699399 22.40332031 26.30444336 C24.20639985 30.23308877 25.98855175 34.17082503 27.76391602 38.11206055 C29.42320608 41.79185983 31.0947323 45.46608331 32.765625 49.140625 C34.65287837 53.29182817 36.53817992 57.44383647 38.41210938 61.60107422 C41.34824031 68.10383632 44.3303102 74.57667788 47.453125 80.9921875 C48.02063477 82.1587085 48.58814453 83.32522949 49.17285156 84.52709961 C50.24005708 86.70616293 51.31456015 88.88167235 52.39746094 91.05297852 C52.86442383 92.00358154 53.33138672 92.95418457 53.8125 93.93359375 C54.225 94.76044678 54.6375 95.5872998 55.0625 96.43920898 C55.31 97.09864502 55.5575 97.75808105 55.8125 98.4375 C55.4825 99.0975 55.1525 99.7575 54.8125 100.4375 C53.4453125 99.20052083 52.078125 97.96354167 50.7109375 96.7265625 C46.36076319 93.77274044 41.6891482 93.17641034 36.5390625 93.0234375 C35.38535156 92.98476562 34.23164063 92.94609375 33.04296875 92.90625 C31.85316406 92.8753125 30.66335938 92.844375 29.4375 92.8125 C28.22449219 92.77382812 27.01148438 92.73515625 25.76171875 92.6953125 C22.77879479 92.60136214 19.79587175 92.51569193 16.8125 92.4375 C15.7259858 90.29323227 14.6430318 88.14728396 13.5625 86 C13.21477539 85.31075439 12.86705078 84.62150879 12.50878906 83.91137695 C10.18665183 79.27660304 7.94471968 74.61059884 5.75 69.9140625 C5.2230957 68.79314209 4.69619141 67.67222168 4.15332031 66.51733398 C3.10230834 64.27611064 2.05981549 62.03087025 1.02636719 59.78149414 C0.53813477 58.74371826 0.04990234 57.70594238 -0.453125 56.63671875 C-0.88399414 55.70690186 -1.31486328 54.77708496 -1.75878906 53.8190918 C-3.30998621 51.23332143 -4.60038734 49.96129698 -7.1875 48.4375 C-17.58046665 47.10844551 -24.52394437 48.66179625 -33.1875 54.4375 C-31.36539049 49.61426895 -29.10670452 45.01743991 -26.875 40.375 C-23.78947012 33.91833441 -20.86070231 27.45028338 -18.17578125 20.81640625 C-16.98515042 17.95042137 -15.57489364 15.21228727 -14.1875 12.4375 C-13.89875 11.426875 -13.61 10.41625 -13.3125 9.375 C-10.84308657 2.92708714 -6.58728907 0.29983523 0 0 Z " fill="#FEB00F" transform="translate(308.1875,113.5625)"/>
<path d="M0 0 C0.77923828 0.61488281 0.77923828 0.61488281 1.57421875 1.2421875 C2.27160156 1.78101563 2.96898438 2.31984375 3.6875 2.875 C4.37199219 3.40867187 5.05648437 3.94234375 5.76171875 4.4921875 C10.21455633 7.49183026 14.06348317 8.26246872 19.39453125 8.4140625 C20.59658203 8.45273437 21.79863281 8.49140625 23.03710938 8.53125 C24.90592773 8.57765625 24.90592773 8.57765625 26.8125 8.625 C28.07771484 8.66367187 29.34292969 8.70234375 30.64648438 8.7421875 C33.76417851 8.83630657 36.88186914 8.92194361 40 9 C40.39268066 9.84594727 40.78536133 10.69189453 41.18994141 11.56347656 C42.67585809 14.76236743 44.163354 17.96051465 45.65185547 21.15820312 C46.29049066 22.53096436 46.92853142 23.90400232 47.56591797 25.27734375 C49.4020672 29.23301643 51.25070614 33.18240686 53.11633301 37.12426758 C53.97294307 38.94256711 54.81628609 40.76709844 55.65917969 42.59179688 C56.17125977 43.67009766 56.68333984 44.74839844 57.2109375 45.859375 C57.6548584 46.80780273 58.0987793 47.75623047 58.55615234 48.73339844 C60.16549426 51.25979857 61.20728975 52.01654466 64 53 C71.21198966 53.87452473 77.3336368 52.68043354 84 50 C84.99 49.67 85.98 49.34 87 49 C87.33 48.01 87.66 47.02 88 46 C88.33 46.66 88.66 47.32 89 48 C87.67402724 50.72976784 86.29094748 53.35449087 84.8125 56 C81.8448859 61.44090962 79.11884887 66.77447181 76.96875 72.59765625 C75.35971801 76.58779606 73.2939445 80.34805333 71.26953125 84.140625 C69.94311846 87.12811472 69.52881616 89.79184866 69 93 C66.368491 96.69833697 64.21471116 99.29534873 60 101 C57.8515625 101.3359375 57.8515625 101.3359375 55.625 101.375 C54.89539063 101.40335937 54.16578125 101.43171875 53.4140625 101.4609375 C48.77913507 100.57595136 45.78504692 98.12289456 43.12109375 94.3125 C42.28771484 92.6728125 42.28771484 92.6728125 41.4375 91 C41.11289795 90.36537842 40.7882959 89.73075684 40.45385742 89.0769043 C35.57174734 79.37834279 31.10337987 69.46868616 26.57478333 59.60140991 C24.07075124 54.14661744 21.54215753 48.7034226 19.00927734 43.26196289 C16.86393793 38.65175862 14.72518939 34.03851501 12.58740234 29.42480469 C11.51322404 27.10727574 10.43799884 24.79023179 9.36181641 22.47363281 C7.79985482 19.10919104 6.24299304 15.74243635 4.6875 12.375 C4.21296387 11.3550293 3.73842773 10.33505859 3.24951172 9.28417969 C2.6058667 7.8866748 2.6058667 7.8866748 1.94921875 6.4609375 C1.57112061 5.64415527 1.19302246 4.82737305 0.8034668 3.98583984 C0 2 0 2 0 0 Z " fill="#12AEA8" transform="translate(118,266)"/>
<path d="M0 0 C6.27 0 12.54 0 19 0 C19 7.26 19 14.52 19 22 C27.25 22 35.5 22 44 22 C44 27.94 44 33.88 44 40 C35.75 40 27.5 40 19 40 C19.0743837 44.4117231 19.15754466 48.82155811 19.26245117 53.23242188 C19.29549866 54.72971472 19.32359202 56.2271261 19.34643555 57.72460938 C19.03708925 70.48161413 19.03708925 70.48161413 24.4152832 81.53686523 C28.81471161 85.42525235 32.49793756 86.13425336 38.1875 86.5625 C40.105625 86.706875 42.02375 86.85125 44 87 C44 93.27 44 99.54 44 106 C31.43283471 106.35906187 19.74214897 104.66353616 10.1875 95.75 C-0.22196138 84.4076152 -0.29278255 71.48284635 -0.1953125 56.93359375 C-0.1915763 55.28736036 -0.1887322 53.64112473 -0.18673706 51.99488831 C-0.17914833 47.68933838 -0.15954146 43.38392618 -0.1373291 39.07843018 C-0.11676739 34.67405052 -0.10771339 30.26964833 -0.09765625 25.86523438 C-0.07629046 17.24341974 -0.04114786 8.62174294 0 0 Z " fill="#FFFFFF" transform="translate(1019,190)"/>
<path d="M0 0 C6.6 0 13.2 0 20 0 C20 36.3 20 72.6 20 110 C13.4 110 6.8 110 0 110 C0 73.7 0 37.4 0 0 Z " fill="#FFFFFF" transform="translate(1256,184)"/>
<path d="M0 0 C15.51 0 31.02 0 47 0 C47 6.27 47 12.54 47 19 C31.49 19 15.98 19 0 19 C0 12.73 0 6.46 0 0 Z " fill="#FFFFFF" transform="translate(1081,238)"/>
<path d="M0 0 C0.66 0.33 1.32 0.66 2 1 C1.52949219 1.45890625 1.05898437 1.9178125 0.57421875 2.390625 C-4.03368398 6.91549295 -4.03368398 6.91549295 -8 12 C-7.49572053 7.58755464 -5.98672249 5.25025683 -3 2 C-2.01 1.34 -1.02 0.68 0 0 Z " fill="#991946" transform="translate(216,299)"/>
</svg>
